<mxfile host="app.diagrams.net" modified="2023-01-31T16:40:09.634Z" agent="5.0 (X11; Linux x86_64) AppleWebKit/537.36 (KHTML, like Gecko) Chrome/109.0.0.0 Safari/537.36" etag="2xWPpq50gp-9t__yqlQP" version="20.8.13" type="github">
  <diagram id="C5RBs43oDa-KdzZeNtuy" name="Page-1">
    <mxGraphModel dx="814" dy="452" grid="1" gridSize="10" guides="1" tooltips="1" connect="1" arrows="1" fold="1" page="1" pageScale="1" pageWidth="827" pageHeight="1169" math="0" shadow="0">
      <root>
        <mxCell id="WIyWlLk6GJQsqaUBKTNV-0" />
        <mxCell id="WIyWlLk6GJQsqaUBKTNV-1" parent="WIyWlLk6GJQsqaUBKTNV-0" />
        <mxCell id="0PwJclEYQ_DoTo1m74KF-2" value="" style="edgeStyle=none;curved=1;rounded=0;orthogonalLoop=1;jettySize=auto;html=1;fontSize=12;startSize=8;endSize=8;" edge="1" parent="WIyWlLk6GJQsqaUBKTNV-1" source="0PwJclEYQ_DoTo1m74KF-0">
          <mxGeometry relative="1" as="geometry">
            <mxPoint x="415" y="180" as="targetPoint" />
          </mxGeometry>
        </mxCell>
        <mxCell id="0PwJclEYQ_DoTo1m74KF-0" value="start" style="ellipse;whiteSpace=wrap;html=1;fontSize=16;" vertex="1" parent="WIyWlLk6GJQsqaUBKTNV-1">
          <mxGeometry x="370" y="90" width="90" height="50" as="geometry" />
        </mxCell>
        <mxCell id="0PwJclEYQ_DoTo1m74KF-5" value="" style="edgeStyle=none;curved=1;rounded=0;orthogonalLoop=1;jettySize=auto;html=1;fontSize=12;fontColor=#FF3399;startSize=8;endSize=8;" edge="1" parent="WIyWlLk6GJQsqaUBKTNV-1" source="0PwJclEYQ_DoTo1m74KF-1">
          <mxGeometry relative="1" as="geometry">
            <mxPoint x="410" y="280" as="targetPoint" />
            <Array as="points">
              <mxPoint x="415" y="270" />
            </Array>
          </mxGeometry>
        </mxCell>
        <mxCell id="0PwJclEYQ_DoTo1m74KF-1" value="int a[ ] = {10, 20, 30, 40, 50, 60, 70, 80, 90, 100};" style="whiteSpace=wrap;html=1;fontSize=16;" vertex="1" parent="WIyWlLk6GJQsqaUBKTNV-1">
          <mxGeometry x="340" y="180" width="150" height="60" as="geometry" />
        </mxCell>
        <mxCell id="0PwJclEYQ_DoTo1m74KF-3" style="edgeStyle=none;curved=1;rounded=0;orthogonalLoop=1;jettySize=auto;html=1;entryX=0.25;entryY=0;entryDx=0;entryDy=0;fontSize=12;startSize=8;endSize=8;" edge="1" parent="WIyWlLk6GJQsqaUBKTNV-1" source="0PwJclEYQ_DoTo1m74KF-1" target="0PwJclEYQ_DoTo1m74KF-1">
          <mxGeometry relative="1" as="geometry" />
        </mxCell>
        <mxCell id="0PwJclEYQ_DoTo1m74KF-8" value="" style="edgeStyle=none;curved=1;rounded=0;orthogonalLoop=1;jettySize=auto;html=1;fontSize=12;fontColor=#FF3399;startSize=8;endSize=8;" edge="1" parent="WIyWlLk6GJQsqaUBKTNV-1" source="0PwJclEYQ_DoTo1m74KF-4">
          <mxGeometry relative="1" as="geometry">
            <mxPoint x="400" y="400" as="targetPoint" />
          </mxGeometry>
        </mxCell>
        <mxCell id="0PwJclEYQ_DoTo1m74KF-4" value="int a2 [10]= {100, 90, 80, 70, 60, 50, 40, 30, 20, 10};" style="whiteSpace=wrap;html=1;fontSize=16;" vertex="1" parent="WIyWlLk6GJQsqaUBKTNV-1">
          <mxGeometry x="350" y="270" width="120" height="60" as="geometry" />
        </mxCell>
        <mxCell id="0PwJclEYQ_DoTo1m74KF-10" value="" style="edgeStyle=none;curved=1;rounded=0;orthogonalLoop=1;jettySize=auto;html=1;fontSize=12;fontColor=#FF3399;startSize=8;endSize=8;" edge="1" parent="WIyWlLk6GJQsqaUBKTNV-1" target="0PwJclEYQ_DoTo1m74KF-9">
          <mxGeometry relative="1" as="geometry">
            <mxPoint x="400" y="380" as="sourcePoint" />
          </mxGeometry>
        </mxCell>
        <mxCell id="0PwJclEYQ_DoTo1m74KF-7" value="int i = 0;" style="whiteSpace=wrap;html=1;fontSize=16;" vertex="1" parent="WIyWlLk6GJQsqaUBKTNV-1">
          <mxGeometry x="350" y="360" width="120" height="60" as="geometry" />
        </mxCell>
        <mxCell id="0PwJclEYQ_DoTo1m74KF-12" value="" style="edgeStyle=none;curved=1;rounded=0;orthogonalLoop=1;jettySize=auto;html=1;fontSize=12;fontColor=#FF3399;startSize=8;endSize=8;" edge="1" parent="WIyWlLk6GJQsqaUBKTNV-1" source="0PwJclEYQ_DoTo1m74KF-9" target="0PwJclEYQ_DoTo1m74KF-11">
          <mxGeometry relative="1" as="geometry" />
        </mxCell>
        <mxCell id="0PwJclEYQ_DoTo1m74KF-17" value="" style="edgeStyle=none;curved=1;rounded=0;orthogonalLoop=1;jettySize=auto;html=1;fontSize=12;fontColor=#FF3399;startSize=8;endSize=8;" edge="1" parent="WIyWlLk6GJQsqaUBKTNV-1" source="0PwJclEYQ_DoTo1m74KF-9" target="0PwJclEYQ_DoTo1m74KF-16">
          <mxGeometry relative="1" as="geometry" />
        </mxCell>
        <mxCell id="0PwJclEYQ_DoTo1m74KF-9" value="i &amp;lt; 5" style="rhombus;whiteSpace=wrap;html=1;fontSize=16;" vertex="1" parent="WIyWlLk6GJQsqaUBKTNV-1">
          <mxGeometry x="360" y="450" width="80" height="80" as="geometry" />
        </mxCell>
        <mxCell id="0PwJclEYQ_DoTo1m74KF-14" value="" style="edgeStyle=none;curved=1;rounded=0;orthogonalLoop=1;jettySize=auto;html=1;fontSize=12;fontColor=#FF3399;startSize=8;endSize=8;" edge="1" parent="WIyWlLk6GJQsqaUBKTNV-1" source="0PwJclEYQ_DoTo1m74KF-11" target="0PwJclEYQ_DoTo1m74KF-13">
          <mxGeometry relative="1" as="geometry" />
        </mxCell>
        <mxCell id="0PwJclEYQ_DoTo1m74KF-11" value="printf(&quot;%d x %d = %d\n&quot;, a[ i ], a2[ i ], a[ i ] x a2[ i ];" style="rounded=1;whiteSpace=wrap;html=1;fontSize=16;" vertex="1" parent="WIyWlLk6GJQsqaUBKTNV-1">
          <mxGeometry x="470" y="460" width="230" height="90" as="geometry" />
        </mxCell>
        <mxCell id="0PwJclEYQ_DoTo1m74KF-15" value="" style="edgeStyle=none;curved=1;rounded=0;orthogonalLoop=1;jettySize=auto;html=1;fontSize=12;fontColor=#FF3399;startSize=8;endSize=8;" edge="1" parent="WIyWlLk6GJQsqaUBKTNV-1" source="0PwJclEYQ_DoTo1m74KF-13" target="0PwJclEYQ_DoTo1m74KF-9">
          <mxGeometry relative="1" as="geometry" />
        </mxCell>
        <mxCell id="0PwJclEYQ_DoTo1m74KF-13" value="i++" style="whiteSpace=wrap;html=1;fontSize=16;rounded=1;" vertex="1" parent="WIyWlLk6GJQsqaUBKTNV-1">
          <mxGeometry x="360" y="590" width="80" height="40" as="geometry" />
        </mxCell>
        <mxCell id="0PwJclEYQ_DoTo1m74KF-16" value="end" style="ellipse;whiteSpace=wrap;html=1;fontSize=16;fontColor=#FF3399;" vertex="1" parent="WIyWlLk6GJQsqaUBKTNV-1">
          <mxGeometry x="190" y="470" width="120" height="70" as="geometry" />
        </mxCell>
      </root>
    </mxGraphModel>
  </diagram>
</mxfile>
